<mxfile host="app.diagrams.net" agent="Mozilla/5.0 (Windows NT 10.0; Win64; x64) AppleWebKit/537.36 (KHTML, like Gecko) Chrome/128.0.0.0 YaBrowser/24.10.0.0 Safari/537.36" version="24.8.3">
  <diagram name="Страница — 1" id="Y3Ff92JFoId_haOZM81_">
    <mxGraphModel dx="2074" dy="1960" grid="1" gridSize="10" guides="1" tooltips="1" connect="1" arrows="1" fold="1" page="1" pageScale="1" pageWidth="827" pageHeight="1169" math="0" shadow="0">
      <root>
        <mxCell id="0" />
        <mxCell id="1" parent="0" />
        <mxCell id="jFq_PPIP0smG9mgLNXUT-3" style="edgeStyle=orthogonalEdgeStyle;rounded=0;orthogonalLoop=1;jettySize=auto;html=1;" parent="1" source="jFq_PPIP0smG9mgLNXUT-1" target="jFq_PPIP0smG9mgLNXUT-2" edge="1">
          <mxGeometry relative="1" as="geometry" />
        </mxCell>
        <mxCell id="jFq_PPIP0smG9mgLNXUT-1" value="" style="ellipse;whiteSpace=wrap;html=1;aspect=fixed;fillColor=#000000;" parent="1" vertex="1">
          <mxGeometry x="270" y="70" width="30" height="30" as="geometry" />
        </mxCell>
        <mxCell id="jFq_PPIP0smG9mgLNXUT-7" style="edgeStyle=orthogonalEdgeStyle;rounded=0;orthogonalLoop=1;jettySize=auto;html=1;entryX=0.5;entryY=0;entryDx=0;entryDy=0;" parent="1" source="jFq_PPIP0smG9mgLNXUT-2" target="jFq_PPIP0smG9mgLNXUT-5" edge="1">
          <mxGeometry relative="1" as="geometry" />
        </mxCell>
        <mxCell id="jFq_PPIP0smG9mgLNXUT-2" value="Открытие задания на обеспечение сборки" style="rounded=1;whiteSpace=wrap;html=1;" parent="1" vertex="1">
          <mxGeometry x="177.5" y="140" width="215" height="60" as="geometry" />
        </mxCell>
        <mxCell id="jFq_PPIP0smG9mgLNXUT-8" style="edgeStyle=orthogonalEdgeStyle;rounded=0;orthogonalLoop=1;jettySize=auto;html=1;entryX=0.5;entryY=0;entryDx=0;entryDy=0;" parent="1" source="jFq_PPIP0smG9mgLNXUT-5" target="jFq_PPIP0smG9mgLNXUT-6" edge="1">
          <mxGeometry relative="1" as="geometry" />
        </mxCell>
        <mxCell id="jFq_PPIP0smG9mgLNXUT-5" value="Проверка остатков на складе" style="rounded=1;whiteSpace=wrap;html=1;" parent="1" vertex="1">
          <mxGeometry x="177.5" y="240" width="215" height="60" as="geometry" />
        </mxCell>
        <mxCell id="jFq_PPIP0smG9mgLNXUT-11" style="edgeStyle=orthogonalEdgeStyle;rounded=0;orthogonalLoop=1;jettySize=auto;html=1;" parent="1" source="jFq_PPIP0smG9mgLNXUT-6" target="jFq_PPIP0smG9mgLNXUT-9" edge="1">
          <mxGeometry relative="1" as="geometry" />
        </mxCell>
        <mxCell id="jFq_PPIP0smG9mgLNXUT-6" value="Поступление задания на закупку недостающих деталей" style="rounded=1;whiteSpace=wrap;html=1;" parent="1" vertex="1">
          <mxGeometry x="177.5" y="340" width="215" height="60" as="geometry" />
        </mxCell>
        <mxCell id="pkSH8NwI1necaTFIyCs8-4" style="edgeStyle=orthogonalEdgeStyle;rounded=0;orthogonalLoop=1;jettySize=auto;html=1;" parent="1" source="jFq_PPIP0smG9mgLNXUT-9" target="pkSH8NwI1necaTFIyCs8-1" edge="1">
          <mxGeometry relative="1" as="geometry" />
        </mxCell>
        <mxCell id="jFq_PPIP0smG9mgLNXUT-9" value="Оформление заявки на закупку" style="rounded=1;whiteSpace=wrap;html=1;" parent="1" vertex="1">
          <mxGeometry x="177.5" y="430" width="215" height="60" as="geometry" />
        </mxCell>
        <mxCell id="jFq_PPIP0smG9mgLNXUT-10" value="Резервирование деталей для сборки" style="rounded=1;whiteSpace=wrap;html=1;" parent="1" vertex="1">
          <mxGeometry x="177.5" y="700" width="215" height="60" as="geometry" />
        </mxCell>
        <mxCell id="jFq_PPIP0smG9mgLNXUT-17" value="" style="strokeWidth=2;html=1;shape=mxgraph.flowchart.start_2;whiteSpace=wrap;" parent="1" vertex="1">
          <mxGeometry x="261.25" y="795" width="47.5" height="45" as="geometry" />
        </mxCell>
        <mxCell id="jFq_PPIP0smG9mgLNXUT-18" value="" style="ellipse;whiteSpace=wrap;html=1;aspect=fixed;fillColor=#000000;" parent="1" vertex="1">
          <mxGeometry x="270" y="802.5" width="30" height="30" as="geometry" />
        </mxCell>
        <mxCell id="jFq_PPIP0smG9mgLNXUT-19" style="edgeStyle=orthogonalEdgeStyle;rounded=0;orthogonalLoop=1;jettySize=auto;html=1;entryX=0.5;entryY=0;entryDx=0;entryDy=0;entryPerimeter=0;" parent="1" source="jFq_PPIP0smG9mgLNXUT-10" target="jFq_PPIP0smG9mgLNXUT-17" edge="1">
          <mxGeometry relative="1" as="geometry" />
        </mxCell>
        <mxCell id="jFq_PPIP0smG9mgLNXUT-20" value="&lt;font style=&quot;font-size: 16px;&quot;&gt;Диаграмма деятельности UML&lt;/font&gt;" style="text;html=1;align=center;verticalAlign=middle;whiteSpace=wrap;rounded=0;" parent="1" vertex="1">
          <mxGeometry x="162.5" width="230" height="80" as="geometry" />
        </mxCell>
        <mxCell id="pkSH8NwI1necaTFIyCs8-3" style="edgeStyle=orthogonalEdgeStyle;rounded=0;orthogonalLoop=1;jettySize=auto;html=1;entryX=0.5;entryY=0;entryDx=0;entryDy=0;" parent="1" source="pkSH8NwI1necaTFIyCs8-1" target="pkSH8NwI1necaTFIyCs8-2" edge="1">
          <mxGeometry relative="1" as="geometry" />
        </mxCell>
        <mxCell id="pkSH8NwI1necaTFIyCs8-1" value="Оформление договора,&amp;nbsp;" style="rounded=1;whiteSpace=wrap;html=1;" parent="1" vertex="1">
          <mxGeometry x="177.5" y="520" width="215" height="60" as="geometry" />
        </mxCell>
        <mxCell id="pkSH8NwI1necaTFIyCs8-5" style="edgeStyle=orthogonalEdgeStyle;rounded=0;orthogonalLoop=1;jettySize=auto;html=1;entryX=0.5;entryY=0;entryDx=0;entryDy=0;" parent="1" source="pkSH8NwI1necaTFIyCs8-2" target="jFq_PPIP0smG9mgLNXUT-10" edge="1">
          <mxGeometry relative="1" as="geometry" />
        </mxCell>
        <mxCell id="pkSH8NwI1necaTFIyCs8-2" value="Оприходование на склад" style="rounded=1;whiteSpace=wrap;html=1;" parent="1" vertex="1">
          <mxGeometry x="177.5" y="610" width="215" height="60" as="geometry" />
        </mxCell>
        <mxCell id="pkSH8NwI1necaTFIyCs8-8" style="edgeStyle=orthogonalEdgeStyle;rounded=0;orthogonalLoop=1;jettySize=auto;html=1;" parent="1" source="pkSH8NwI1necaTFIyCs8-9" target="pkSH8NwI1necaTFIyCs8-11" edge="1">
          <mxGeometry relative="1" as="geometry" />
        </mxCell>
        <mxCell id="pkSH8NwI1necaTFIyCs8-24" value="ОПП" style="swimlane;horizontal=0;whiteSpace=wrap;html=1;" parent="1" vertex="1">
          <mxGeometry x="570" y="70" width="620" height="170" as="geometry" />
        </mxCell>
        <mxCell id="pkSH8NwI1necaTFIyCs8-6" style="edgeStyle=orthogonalEdgeStyle;rounded=0;orthogonalLoop=1;jettySize=auto;html=1;entryX=0;entryY=0.5;entryDx=0;entryDy=0;" parent="pkSH8NwI1necaTFIyCs8-24" source="pkSH8NwI1necaTFIyCs8-7" target="pkSH8NwI1necaTFIyCs8-9" edge="1">
          <mxGeometry relative="1" as="geometry" />
        </mxCell>
        <mxCell id="pkSH8NwI1necaTFIyCs8-9" value="Открытие задания на обеспечение сборки" style="ellipse;whiteSpace=wrap;html=1;" parent="pkSH8NwI1necaTFIyCs8-24" vertex="1">
          <mxGeometry x="220" y="20" width="150" height="65" as="geometry" />
        </mxCell>
        <mxCell id="pkSH8NwI1necaTFIyCs8-7" value="Инженер ОПП" style="shape=umlActor;verticalLabelPosition=bottom;verticalAlign=top;html=1;outlineConnect=0;" parent="pkSH8NwI1necaTFIyCs8-24" vertex="1">
          <mxGeometry x="60" y="22.5" width="30" height="60" as="geometry" />
        </mxCell>
        <mxCell id="pkSH8NwI1necaTFIyCs8-25" value="Система" style="swimlane;horizontal=0;whiteSpace=wrap;html=1;" parent="1" vertex="1">
          <mxGeometry x="570" y="240" width="620" height="430" as="geometry" />
        </mxCell>
        <mxCell id="jotfJ-VaZBIeC9uiuRzf-3" style="edgeStyle=orthogonalEdgeStyle;rounded=0;orthogonalLoop=1;jettySize=auto;html=1;" edge="1" parent="pkSH8NwI1necaTFIyCs8-25" source="pkSH8NwI1necaTFIyCs8-11" target="jotfJ-VaZBIeC9uiuRzf-2">
          <mxGeometry relative="1" as="geometry" />
        </mxCell>
        <mxCell id="pkSH8NwI1necaTFIyCs8-11" value="Проверка остатков на складе" style="ellipse;whiteSpace=wrap;html=1;" parent="pkSH8NwI1necaTFIyCs8-25" vertex="1">
          <mxGeometry x="220" y="30" width="150" height="65" as="geometry" />
        </mxCell>
        <mxCell id="pkSH8NwI1necaTFIyCs8-13" value="Поступление задания на закупку недостающих деталей" style="ellipse;whiteSpace=wrap;html=1;" parent="pkSH8NwI1necaTFIyCs8-25" vertex="1">
          <mxGeometry x="205" y="280" width="180" height="70" as="geometry" />
        </mxCell>
        <mxCell id="jotfJ-VaZBIeC9uiuRzf-4" style="edgeStyle=orthogonalEdgeStyle;rounded=0;orthogonalLoop=1;jettySize=auto;html=1;" edge="1" parent="pkSH8NwI1necaTFIyCs8-25" source="jotfJ-VaZBIeC9uiuRzf-2" target="pkSH8NwI1necaTFIyCs8-13">
          <mxGeometry relative="1" as="geometry" />
        </mxCell>
        <mxCell id="jotfJ-VaZBIeC9uiuRzf-2" value="Резервирование имеющихся деталей" style="ellipse;whiteSpace=wrap;html=1;" vertex="1" parent="pkSH8NwI1necaTFIyCs8-25">
          <mxGeometry x="220" y="150" width="150" height="65" as="geometry" />
        </mxCell>
        <mxCell id="pkSH8NwI1necaTFIyCs8-28" value="&lt;font style=&quot;&quot;&gt;&lt;span style=&quot;font-size: 16px;&quot;&gt;Диаграмма&amp;nbsp;&lt;/span&gt;&lt;span style=&quot;font-family: -apple-system, BlinkMacSystemFont, Roboto, &amp;quot;Open Sans&amp;quot;, &amp;quot;Helvetica Neue&amp;quot;, &amp;quot;Noto Sans Armenian&amp;quot;, &amp;quot;Noto Sans Bengali&amp;quot;, &amp;quot;Noto Sans Cherokee&amp;quot;, &amp;quot;Noto Sans Devanagari&amp;quot;, &amp;quot;Noto Sans Ethiopic&amp;quot;, &amp;quot;Noto Sans Georgian&amp;quot;, &amp;quot;Noto Sans Hebrew&amp;quot;, &amp;quot;Noto Sans Kannada&amp;quot;, &amp;quot;Noto Sans Khmer&amp;quot;, &amp;quot;Noto Sans Lao&amp;quot;, &amp;quot;Noto Sans Osmanya&amp;quot;, &amp;quot;Noto Sans Tamil&amp;quot;, &amp;quot;Noto Sans Telugu&amp;quot;, &amp;quot;Noto Sans Thai&amp;quot;, sans-serif; text-align: left; background-color: rgb(255, 255, 255);&quot;&gt;&lt;font style=&quot;font-size: 16px;&quot;&gt;Use Case&amp;nbsp;&lt;/font&gt;&lt;/span&gt;&lt;span style=&quot;font-size: 16px;&quot;&gt;UML&lt;/span&gt;&lt;/font&gt;" style="text;html=1;align=center;verticalAlign=middle;whiteSpace=wrap;rounded=0;" parent="1" vertex="1">
          <mxGeometry x="750" y="-7.5" width="230" height="80" as="geometry" />
        </mxCell>
        <mxCell id="pkSH8NwI1necaTFIyCs8-29" value="Инженер ОПП" style="shape=umlActor;verticalLabelPosition=bottom;verticalAlign=top;html=1;outlineConnect=0;" parent="1" vertex="1">
          <mxGeometry x="1360" y="130" width="30" height="60" as="geometry" />
        </mxCell>
        <mxCell id="pkSH8NwI1necaTFIyCs8-38" style="edgeStyle=orthogonalEdgeStyle;rounded=0;orthogonalLoop=1;jettySize=auto;html=1;exitX=1;exitY=0.25;exitDx=0;exitDy=0;" parent="1" source="pkSH8NwI1necaTFIyCs8-30" edge="1">
          <mxGeometry relative="1" as="geometry">
            <mxPoint x="1540" y="290" as="targetPoint" />
          </mxGeometry>
        </mxCell>
        <mxCell id="pkSH8NwI1necaTFIyCs8-30" value="" style="rounded=0;whiteSpace=wrap;html=1;" parent="1" vertex="1">
          <mxGeometry x="1365" y="240" width="20" height="200" as="geometry" />
        </mxCell>
        <mxCell id="pkSH8NwI1necaTFIyCs8-37" value="Конструкторская документация" style="rounded=1;whiteSpace=wrap;html=1;" parent="1" vertex="1">
          <mxGeometry x="1500" y="200" width="110" height="30" as="geometry" />
        </mxCell>
        <mxCell id="pkSH8NwI1necaTFIyCs8-39" value="сверка конструкторской документации на актуальность" style="text;html=1;align=center;verticalAlign=middle;whiteSpace=wrap;rounded=0;" parent="1" vertex="1">
          <mxGeometry x="1420" y="240" width="60" height="30" as="geometry" />
        </mxCell>
        <mxCell id="pkSH8NwI1necaTFIyCs8-41" value="" style="endArrow=classic;html=1;rounded=0;entryX=-0.156;entryY=0.7;entryDx=0;entryDy=0;entryPerimeter=0;" parent="1" edge="1">
          <mxGeometry width="50" height="50" relative="1" as="geometry">
            <mxPoint x="1555.56" y="310" as="sourcePoint" />
            <mxPoint x="1690.44" y="310" as="targetPoint" />
          </mxGeometry>
        </mxCell>
        <mxCell id="pkSH8NwI1necaTFIyCs8-42" value="выбор деталей для сборки" style="text;html=1;align=center;verticalAlign=middle;whiteSpace=wrap;rounded=0;" parent="1" vertex="1">
          <mxGeometry x="1565" y="250" width="116" height="50" as="geometry" />
        </mxCell>
        <mxCell id="pkSH8NwI1necaTFIyCs8-43" value="АСУ" style="rounded=1;whiteSpace=wrap;html=1;" parent="1" vertex="1">
          <mxGeometry x="1645" y="200" width="110" height="30" as="geometry" />
        </mxCell>
        <mxCell id="pkSH8NwI1necaTFIyCs8-47" value="" style="rounded=0;whiteSpace=wrap;html=1;" parent="1" vertex="1">
          <mxGeometry x="1545" y="240" width="20" height="100" as="geometry" />
        </mxCell>
        <mxCell id="pkSH8NwI1necaTFIyCs8-49" style="edgeStyle=orthogonalEdgeStyle;rounded=0;orthogonalLoop=1;jettySize=auto;html=1;exitX=0;exitY=0.75;exitDx=0;exitDy=0;entryX=1;entryY=0.75;entryDx=0;entryDy=0;" parent="1" source="pkSH8NwI1necaTFIyCs8-48" target="pkSH8NwI1necaTFIyCs8-30" edge="1">
          <mxGeometry relative="1" as="geometry" />
        </mxCell>
        <mxCell id="pkSH8NwI1necaTFIyCs8-48" value="" style="rounded=0;whiteSpace=wrap;html=1;" parent="1" vertex="1">
          <mxGeometry x="1690" y="240" width="20" height="200" as="geometry" />
        </mxCell>
        <mxCell id="pkSH8NwI1necaTFIyCs8-50" value="Открытие задания для закупки" style="text;html=1;align=center;verticalAlign=middle;whiteSpace=wrap;rounded=0;" parent="1" vertex="1">
          <mxGeometry x="1497" y="340" width="116" height="50" as="geometry" />
        </mxCell>
        <mxCell id="pkSH8NwI1necaTFIyCs8-68" style="edgeStyle=orthogonalEdgeStyle;rounded=0;orthogonalLoop=1;jettySize=auto;html=1;exitX=1;exitY=0.25;exitDx=0;exitDy=0;entryX=0;entryY=0.5;entryDx=0;entryDy=0;endArrow=none;endFill=0;" parent="1" source="pkSH8NwI1necaTFIyCs8-53" target="pkSH8NwI1necaTFIyCs8-55" edge="1">
          <mxGeometry relative="1" as="geometry" />
        </mxCell>
        <mxCell id="pkSH8NwI1necaTFIyCs8-53" value="" style="rounded=0;whiteSpace=wrap;html=1;" parent="1" vertex="1">
          <mxGeometry x="1370" y="620" width="20" height="260" as="geometry" />
        </mxCell>
        <mxCell id="pkSH8NwI1necaTFIyCs8-54" value="База склада" style="rounded=1;whiteSpace=wrap;html=1;" parent="1" vertex="1">
          <mxGeometry x="1520" y="580" width="110" height="30" as="geometry" />
        </mxCell>
        <mxCell id="pkSH8NwI1necaTFIyCs8-70" style="edgeStyle=orthogonalEdgeStyle;rounded=0;orthogonalLoop=1;jettySize=auto;html=1;entryX=-0.07;entryY=0.377;entryDx=0;entryDy=0;entryPerimeter=0;" parent="1" source="pkSH8NwI1necaTFIyCs8-55" target="pkSH8NwI1necaTFIyCs8-59" edge="1">
          <mxGeometry relative="1" as="geometry" />
        </mxCell>
        <mxCell id="pkSH8NwI1necaTFIyCs8-55" value="Выбор позиции" style="text;html=1;align=center;verticalAlign=middle;whiteSpace=wrap;rounded=0;" parent="1" vertex="1">
          <mxGeometry x="1420" y="670" width="110" height="30" as="geometry" />
        </mxCell>
        <mxCell id="pkSH8NwI1necaTFIyCs8-57" value="Проверка наличия" style="text;html=1;align=center;verticalAlign=middle;whiteSpace=wrap;rounded=0;" parent="1" vertex="1">
          <mxGeometry x="1585" y="650" width="116" height="50" as="geometry" />
        </mxCell>
        <mxCell id="pkSH8NwI1necaTFIyCs8-58" value="АСУ" style="rounded=1;whiteSpace=wrap;html=1;" parent="1" vertex="1">
          <mxGeometry x="1665" y="580" width="110" height="30" as="geometry" />
        </mxCell>
        <mxCell id="pkSH8NwI1necaTFIyCs8-71" style="edgeStyle=orthogonalEdgeStyle;rounded=0;orthogonalLoop=1;jettySize=auto;html=1;entryX=0;entryY=0.25;entryDx=0;entryDy=0;exitX=1.009;exitY=0.367;exitDx=0;exitDy=0;exitPerimeter=0;" parent="1" source="pkSH8NwI1necaTFIyCs8-59" target="pkSH8NwI1necaTFIyCs8-61" edge="1">
          <mxGeometry relative="1" as="geometry" />
        </mxCell>
        <mxCell id="pkSH8NwI1necaTFIyCs8-76" style="edgeStyle=orthogonalEdgeStyle;rounded=0;orthogonalLoop=1;jettySize=auto;html=1;exitX=0.004;exitY=0.766;exitDx=0;exitDy=0;exitPerimeter=0;endArrow=none;endFill=0;" parent="1" source="pkSH8NwI1necaTFIyCs8-59" target="pkSH8NwI1necaTFIyCs8-75" edge="1">
          <mxGeometry relative="1" as="geometry" />
        </mxCell>
        <mxCell id="pkSH8NwI1necaTFIyCs8-59" value="" style="rounded=0;whiteSpace=wrap;html=1;" parent="1" vertex="1">
          <mxGeometry x="1565" y="620" width="20" height="170" as="geometry" />
        </mxCell>
        <mxCell id="pkSH8NwI1necaTFIyCs8-61" value="" style="rounded=0;whiteSpace=wrap;html=1;" parent="1" vertex="1">
          <mxGeometry x="1710" y="620" width="20" height="250" as="geometry" />
        </mxCell>
        <mxCell id="pkSH8NwI1necaTFIyCs8-62" value="Резервирование детали" style="text;html=1;align=center;verticalAlign=middle;whiteSpace=wrap;rounded=0;" parent="1" vertex="1">
          <mxGeometry x="1499" y="820" width="116" height="40" as="geometry" />
        </mxCell>
        <mxCell id="pkSH8NwI1necaTFIyCs8-63" value="Система" style="rounded=1;whiteSpace=wrap;html=1;" parent="1" vertex="1">
          <mxGeometry x="1325" y="580" width="110" height="30" as="geometry" />
        </mxCell>
        <mxCell id="pkSH8NwI1necaTFIyCs8-77" style="edgeStyle=orthogonalEdgeStyle;rounded=0;orthogonalLoop=1;jettySize=auto;html=1;entryX=1;entryY=0.5;entryDx=0;entryDy=0;" parent="1" source="pkSH8NwI1necaTFIyCs8-75" target="pkSH8NwI1necaTFIyCs8-53" edge="1">
          <mxGeometry relative="1" as="geometry" />
        </mxCell>
        <mxCell id="pkSH8NwI1necaTFIyCs8-75" value="сообщение об отсутствии в наличии" style="text;html=1;align=center;verticalAlign=middle;whiteSpace=wrap;rounded=0;" parent="1" vertex="1">
          <mxGeometry x="1407" y="735" width="110" height="30" as="geometry" />
        </mxCell>
        <mxCell id="pkSH8NwI1necaTFIyCs8-79" style="edgeStyle=orthogonalEdgeStyle;rounded=0;orthogonalLoop=1;jettySize=auto;html=1;entryX=1.073;entryY=0.845;entryDx=0;entryDy=0;entryPerimeter=0;" parent="1" source="pkSH8NwI1necaTFIyCs8-62" target="pkSH8NwI1necaTFIyCs8-53" edge="1">
          <mxGeometry relative="1" as="geometry" />
        </mxCell>
        <mxCell id="pkSH8NwI1necaTFIyCs8-80" value="" style="endArrow=none;html=1;rounded=0;entryX=0.024;entryY=0.876;entryDx=0;entryDy=0;entryPerimeter=0;" parent="1" target="pkSH8NwI1necaTFIyCs8-61" edge="1">
          <mxGeometry width="50" height="50" relative="1" as="geometry">
            <mxPoint x="1620" y="840" as="sourcePoint" />
            <mxPoint x="1590" y="800" as="targetPoint" />
          </mxGeometry>
        </mxCell>
        <mxCell id="pkSH8NwI1necaTFIyCs8-81" style="edgeStyle=orthogonalEdgeStyle;rounded=0;orthogonalLoop=1;jettySize=auto;html=1;exitX=1;exitY=0.25;exitDx=0;exitDy=0;entryX=0;entryY=0.5;entryDx=0;entryDy=0;endArrow=none;endFill=0;" parent="1" target="pkSH8NwI1necaTFIyCs8-85" edge="1">
          <mxGeometry relative="1" as="geometry">
            <mxPoint x="1587.5" y="1125" as="sourcePoint" />
          </mxGeometry>
        </mxCell>
        <mxCell id="pkSH8NwI1necaTFIyCs8-82" value="" style="rounded=0;whiteSpace=wrap;html=1;" parent="1" vertex="1">
          <mxGeometry x="1372.5" y="1090" width="20" height="370" as="geometry" />
        </mxCell>
        <mxCell id="pkSH8NwI1necaTFIyCs8-84" style="edgeStyle=orthogonalEdgeStyle;rounded=0;orthogonalLoop=1;jettySize=auto;html=1;entryX=-0.07;entryY=0.377;entryDx=0;entryDy=0;entryPerimeter=0;" parent="1" source="pkSH8NwI1necaTFIyCs8-85" edge="1">
          <mxGeometry relative="1" as="geometry">
            <mxPoint x="1761.1" y="1124.09" as="targetPoint" />
          </mxGeometry>
        </mxCell>
        <mxCell id="pkSH8NwI1necaTFIyCs8-85" value="Оформление заявки поставщикам" style="text;html=1;align=center;verticalAlign=middle;whiteSpace=wrap;rounded=0;" parent="1" vertex="1">
          <mxGeometry x="1617.5" y="1110" width="110" height="30" as="geometry" />
        </mxCell>
        <mxCell id="pkSH8NwI1necaTFIyCs8-87" value="Система" style="rounded=1;whiteSpace=wrap;html=1;" parent="1" vertex="1">
          <mxGeometry x="1325" y="1050" width="110" height="30" as="geometry" />
        </mxCell>
        <mxCell id="pkSH8NwI1necaTFIyCs8-102" style="edgeStyle=orthogonalEdgeStyle;rounded=0;orthogonalLoop=1;jettySize=auto;html=1;exitX=0;exitY=0.5;exitDx=0;exitDy=0;endArrow=none;endFill=0;" parent="1" edge="1">
          <mxGeometry relative="1" as="geometry">
            <mxPoint x="1718" y="1355.2380952380952" as="targetPoint" />
            <mxPoint x="1765.5" y="1355" as="sourcePoint" />
          </mxGeometry>
        </mxCell>
        <mxCell id="pkSH8NwI1necaTFIyCs8-90" value="" style="rounded=0;whiteSpace=wrap;html=1;" parent="1" vertex="1">
          <mxGeometry x="1567.5" y="1090" width="20" height="350" as="geometry" />
        </mxCell>
        <mxCell id="pkSH8NwI1necaTFIyCs8-91" value="" style="rounded=0;whiteSpace=wrap;html=1;" parent="1" vertex="1">
          <mxGeometry x="1760" y="1090" width="20" height="350" as="geometry" />
        </mxCell>
        <mxCell id="pkSH8NwI1necaTFIyCs8-92" value="Оприходование и резервирование детали" style="text;html=1;align=center;verticalAlign=middle;whiteSpace=wrap;rounded=0;" parent="1" vertex="1">
          <mxGeometry x="1417" y="1380" width="116" height="40" as="geometry" />
        </mxCell>
        <mxCell id="pkSH8NwI1necaTFIyCs8-100" value="Инженер ОПК" style="shape=umlActor;verticalLabelPosition=bottom;verticalAlign=top;html=1;outlineConnect=0;" parent="1" vertex="1">
          <mxGeometry x="1560" y="1000" width="30" height="60" as="geometry" />
        </mxCell>
        <mxCell id="pkSH8NwI1necaTFIyCs8-101" value="Отправка готовой продукции" style="text;html=1;align=center;verticalAlign=middle;whiteSpace=wrap;rounded=0;" parent="1" vertex="1">
          <mxGeometry x="1643" y="1340" width="60" height="30" as="geometry" />
        </mxCell>
        <mxCell id="pkSH8NwI1necaTFIyCs8-103" style="edgeStyle=orthogonalEdgeStyle;rounded=0;orthogonalLoop=1;jettySize=auto;html=1;entryX=0.977;entryY=0.324;entryDx=0;entryDy=0;entryPerimeter=0;" parent="1" edge="1">
          <mxGeometry relative="1" as="geometry">
            <mxPoint x="1628" y="1354" as="sourcePoint" />
            <mxPoint x="1590.04" y="1354.24" as="targetPoint" />
          </mxGeometry>
        </mxCell>
        <mxCell id="pkSH8NwI1necaTFIyCs8-105" value="Поставщик" style="shape=umlActor;verticalLabelPosition=bottom;verticalAlign=top;html=1;outlineConnect=0;" parent="1" vertex="1">
          <mxGeometry x="1755" y="1000" width="30" height="60" as="geometry" />
        </mxCell>
        <mxCell id="pkSH8NwI1necaTFIyCs8-108" value="Оформление договора" style="text;html=1;align=center;verticalAlign=middle;whiteSpace=wrap;rounded=0;" parent="1" vertex="1">
          <mxGeometry x="1615.7" y="1270" width="110" height="30" as="geometry" />
        </mxCell>
        <mxCell id="pkSH8NwI1necaTFIyCs8-109" style="edgeStyle=orthogonalEdgeStyle;rounded=0;orthogonalLoop=1;jettySize=auto;html=1;entryX=-0.07;entryY=0.377;entryDx=0;entryDy=0;entryPerimeter=0;" parent="1" source="pkSH8NwI1necaTFIyCs8-108" edge="1">
          <mxGeometry relative="1" as="geometry">
            <mxPoint x="1759.3" y="1284.09" as="targetPoint" />
          </mxGeometry>
        </mxCell>
        <mxCell id="pkSH8NwI1necaTFIyCs8-110" style="edgeStyle=orthogonalEdgeStyle;rounded=0;orthogonalLoop=1;jettySize=auto;html=1;exitX=1;exitY=0.25;exitDx=0;exitDy=0;entryX=0;entryY=0.5;entryDx=0;entryDy=0;endArrow=none;endFill=0;" parent="1" target="pkSH8NwI1necaTFIyCs8-108" edge="1">
          <mxGeometry relative="1" as="geometry">
            <mxPoint x="1585.7" y="1285" as="sourcePoint" />
          </mxGeometry>
        </mxCell>
        <mxCell id="pkSH8NwI1necaTFIyCs8-111" value="" style="endArrow=none;html=1;rounded=0;exitX=-0.02;exitY=0.883;exitDx=0;exitDy=0;exitPerimeter=0;entryX=1;entryY=0.5;entryDx=0;entryDy=0;" parent="1" source="pkSH8NwI1necaTFIyCs8-90" target="pkSH8NwI1necaTFIyCs8-92" edge="1">
          <mxGeometry width="50" height="50" relative="1" as="geometry">
            <mxPoint x="1610" y="1380" as="sourcePoint" />
            <mxPoint x="1660" y="1330" as="targetPoint" />
          </mxGeometry>
        </mxCell>
        <mxCell id="pkSH8NwI1necaTFIyCs8-112" value="" style="endArrow=classic;html=1;rounded=0;exitX=0;exitY=0.5;exitDx=0;exitDy=0;entryX=1.144;entryY=0.837;entryDx=0;entryDy=0;entryPerimeter=0;" parent="1" source="pkSH8NwI1necaTFIyCs8-92" target="pkSH8NwI1necaTFIyCs8-82" edge="1">
          <mxGeometry width="50" height="50" relative="1" as="geometry">
            <mxPoint x="1610" y="1380" as="sourcePoint" />
            <mxPoint x="1660" y="1330" as="targetPoint" />
          </mxGeometry>
        </mxCell>
        <mxCell id="pkSH8NwI1necaTFIyCs8-113" value="&lt;div style=&quot;text-align: left;&quot;&gt;&lt;span style=&quot;background-color: initial; font-size: 16px;&quot;&gt;Диаграммы &lt;/span&gt;&lt;span style=&quot;font-size: 16px; background-color: rgb(255, 255, 255);&quot;&gt;&lt;font face=&quot;-apple-system, BlinkMacSystemFont, Roboto, Open Sans, Helvetica Neue, Noto Sans Armenian, Noto Sans Bengali, Noto Sans Cherokee, Noto Sans Devanagari, Noto Sans Ethiopic, Noto Sans Georgian, Noto Sans Hebrew, Noto Sans Kannada, Noto Sans Khmer, Noto Sans Lao, Noto Sans Osmanya, Noto Sans Tamil, Noto Sans Telugu, Noto Sans Thai, sans-serif&quot;&gt;Sequence&amp;nbsp;&lt;/font&gt;&lt;/span&gt;&lt;span style=&quot;background-color: initial; font-size: 16px;&quot;&gt;UML&lt;/span&gt;&lt;/div&gt;" style="text;html=1;align=center;verticalAlign=middle;whiteSpace=wrap;rounded=0;" parent="1" vertex="1">
          <mxGeometry x="1462.5" y="20" width="230" height="80" as="geometry" />
        </mxCell>
        <mxCell id="jotfJ-VaZBIeC9uiuRzf-1" value="" style="group" vertex="1" connectable="0" parent="1">
          <mxGeometry x="570" y="670" width="620" height="380" as="geometry" />
        </mxCell>
        <mxCell id="pkSH8NwI1necaTFIyCs8-14" style="edgeStyle=orthogonalEdgeStyle;rounded=0;orthogonalLoop=1;jettySize=auto;html=1;entryX=0.5;entryY=0;entryDx=0;entryDy=0;" parent="jotfJ-VaZBIeC9uiuRzf-1" source="pkSH8NwI1necaTFIyCs8-15" target="pkSH8NwI1necaTFIyCs8-17" edge="1">
          <mxGeometry relative="1" as="geometry" />
        </mxCell>
        <mxCell id="pkSH8NwI1necaTFIyCs8-15" value="Оформление заявки на закупку" style="ellipse;whiteSpace=wrap;html=1;" parent="jotfJ-VaZBIeC9uiuRzf-1" vertex="1">
          <mxGeometry x="220" y="10" width="150" height="65" as="geometry" />
        </mxCell>
        <mxCell id="pkSH8NwI1necaTFIyCs8-16" style="edgeStyle=orthogonalEdgeStyle;rounded=0;orthogonalLoop=1;jettySize=auto;html=1;" parent="jotfJ-VaZBIeC9uiuRzf-1" source="pkSH8NwI1necaTFIyCs8-17" target="pkSH8NwI1necaTFIyCs8-19" edge="1">
          <mxGeometry relative="1" as="geometry" />
        </mxCell>
        <mxCell id="pkSH8NwI1necaTFIyCs8-17" value="Оформление договора,&amp;nbsp;" style="ellipse;whiteSpace=wrap;html=1;" parent="jotfJ-VaZBIeC9uiuRzf-1" vertex="1">
          <mxGeometry x="220" y="100" width="150" height="65" as="geometry" />
        </mxCell>
        <mxCell id="pkSH8NwI1necaTFIyCs8-18" style="edgeStyle=orthogonalEdgeStyle;rounded=0;orthogonalLoop=1;jettySize=auto;html=1;" parent="jotfJ-VaZBIeC9uiuRzf-1" source="pkSH8NwI1necaTFIyCs8-19" target="pkSH8NwI1necaTFIyCs8-20" edge="1">
          <mxGeometry relative="1" as="geometry" />
        </mxCell>
        <mxCell id="pkSH8NwI1necaTFIyCs8-19" value="Оприходование на склад" style="ellipse;whiteSpace=wrap;html=1;" parent="jotfJ-VaZBIeC9uiuRzf-1" vertex="1">
          <mxGeometry x="220" y="195" width="150" height="65" as="geometry" />
        </mxCell>
        <mxCell id="pkSH8NwI1necaTFIyCs8-20" value="Резервирование деталей для сборки" style="ellipse;whiteSpace=wrap;html=1;" parent="jotfJ-VaZBIeC9uiuRzf-1" vertex="1">
          <mxGeometry x="220" y="290" width="150" height="65" as="geometry" />
        </mxCell>
        <mxCell id="pkSH8NwI1necaTFIyCs8-21" style="edgeStyle=orthogonalEdgeStyle;rounded=0;orthogonalLoop=1;jettySize=auto;html=1;entryX=0;entryY=0.5;entryDx=0;entryDy=0;" parent="jotfJ-VaZBIeC9uiuRzf-1" source="pkSH8NwI1necaTFIyCs8-27" target="pkSH8NwI1necaTFIyCs8-15" edge="1">
          <mxGeometry relative="1" as="geometry" />
        </mxCell>
        <mxCell id="pkSH8NwI1necaTFIyCs8-22" style="edgeStyle=orthogonalEdgeStyle;rounded=0;orthogonalLoop=1;jettySize=auto;html=1;" parent="jotfJ-VaZBIeC9uiuRzf-1" source="pkSH8NwI1necaTFIyCs8-27" target="pkSH8NwI1necaTFIyCs8-17" edge="1">
          <mxGeometry relative="1" as="geometry" />
        </mxCell>
        <mxCell id="pkSH8NwI1necaTFIyCs8-23" style="edgeStyle=orthogonalEdgeStyle;rounded=0;orthogonalLoop=1;jettySize=auto;html=1;entryX=0;entryY=0.5;entryDx=0;entryDy=0;" parent="jotfJ-VaZBIeC9uiuRzf-1" source="pkSH8NwI1necaTFIyCs8-27" target="pkSH8NwI1necaTFIyCs8-19" edge="1">
          <mxGeometry relative="1" as="geometry" />
        </mxCell>
        <mxCell id="pkSH8NwI1necaTFIyCs8-26" value="ОПК" style="swimlane;horizontal=0;whiteSpace=wrap;html=1;" parent="jotfJ-VaZBIeC9uiuRzf-1" vertex="1">
          <mxGeometry width="620" height="380" as="geometry">
            <mxRectangle y="190" width="40" height="140" as="alternateBounds" />
          </mxGeometry>
        </mxCell>
        <mxCell id="pkSH8NwI1necaTFIyCs8-27" value="Инженер ОПК" style="shape=umlActor;verticalLabelPosition=bottom;verticalAlign=top;html=1;outlineConnect=0;" parent="pkSH8NwI1necaTFIyCs8-26" vertex="1">
          <mxGeometry x="60" y="102.5" width="30" height="60" as="geometry" />
        </mxCell>
        <mxCell id="jotfJ-VaZBIeC9uiuRzf-5" style="edgeStyle=orthogonalEdgeStyle;rounded=0;orthogonalLoop=1;jettySize=auto;html=1;entryX=0;entryY=0.5;entryDx=0;entryDy=0;" edge="1" parent="jotfJ-VaZBIeC9uiuRzf-1" source="pkSH8NwI1necaTFIyCs8-27" target="pkSH8NwI1necaTFIyCs8-20">
          <mxGeometry relative="1" as="geometry" />
        </mxCell>
        <mxCell id="pkSH8NwI1necaTFIyCs8-12" style="edgeStyle=orthogonalEdgeStyle;rounded=0;orthogonalLoop=1;jettySize=auto;html=1;" parent="1" source="pkSH8NwI1necaTFIyCs8-13" target="pkSH8NwI1necaTFIyCs8-15" edge="1">
          <mxGeometry relative="1" as="geometry" />
        </mxCell>
      </root>
    </mxGraphModel>
  </diagram>
</mxfile>
